<!-- icon666.com - MILLIONS OF FREE VECTOR ICONS --><svg id="OBJECT" viewBox="0 0 32 32" xmlns="http://www.w3.org/2000/svg"><rect fill="#798bc6" height="6" rx="2" width="30" x="1" y="1" style="fill: rgb(255, 255, 255);"></rect><rect fill="#faf7f5" height="6" rx="2" width="30" x="1" y="13" style="fill: rgb(255, 255, 255);"></rect><rect fill="#faf7f5" height="6" rx="2" width="30" x="1" y="25" style="fill: rgb(255, 255, 255);"></rect><path d="m5 3h26a2 2 0 0 0 -2-2h-26a2 2 0 0 0 -2 2v2a2 2 0 0 0 2 2v-2a2 2 0 0 1 2-2z" fill="#6b7eb5" style="fill: rgb(255, 255, 255);"></path><g fill="#f0e6e2"><path d="m5 15h26a2 2 0 0 0 -2-2h-26a2 2 0 0 0 -2 2v2a2 2 0 0 0 2 2v-2a2 2 0 0 1 2-2z" fill="#f0e6e2" style="fill: rgb(255, 255, 255);"></path><path d="m5 27h26a2 2 0 0 0 -2-2h-26a2 2 0 0 0 -2 2v2a2 2 0 0 0 2 2v-2a2 2 0 0 1 2-2z" fill="#f0e6e2" style="fill: rgb(255, 255, 255);"></path></g></svg>